<svg width="30" height="29" viewBox="0 0 30 29" fill="none" xmlns="http://www.w3.org/2000/svg">
<path d="M14.5833 0C12.6682 0 10.7719 0.377209 9.00253 1.11009C7.2332 1.84297 5.62555 2.91717 4.27136 4.27136C1.53645 7.00627 0 10.7156 0 14.5833C0 21.0292 4.18542 26.4979 9.975 28.4375C10.7042 28.5542 10.9375 28.1021 10.9375 27.7083V25.2437C6.89792 26.1187 6.0375 23.2896 6.0375 23.2896C5.36667 21.5979 4.41875 21.1458 4.41875 21.1458C3.09167 20.2417 4.52083 20.2708 4.52083 20.2708C5.97917 20.3729 6.75208 21.7729 6.75208 21.7729C8.02083 23.9896 10.1646 23.3333 10.9958 22.9833C11.1271 22.0354 11.5062 21.3938 11.9146 21.0292C8.67708 20.6646 5.27917 19.4104 5.27917 13.8542C5.27917 12.2354 5.83333 10.9375 6.78125 9.90208C6.63542 9.5375 6.125 8.02083 6.92708 6.05208C6.92708 6.05208 8.15208 5.65833 10.9375 7.53958C12.0896 7.21875 13.3437 7.05833 14.5833 7.05833C15.8229 7.05833 17.0771 7.21875 18.2292 7.53958C21.0146 5.65833 22.2396 6.05208 22.2396 6.05208C23.0417 8.02083 22.5312 9.5375 22.3854 9.90208C23.3333 10.9375 23.8875 12.2354 23.8875 13.8542C23.8875 19.425 20.475 20.65 17.2229 21.0146C17.7479 21.4667 18.2292 22.3563 18.2292 23.7125V27.7083C18.2292 28.1021 18.4625 28.5688 19.2062 28.4375C24.9958 26.4833 29.1667 21.0292 29.1667 14.5833C29.1667 12.6682 28.7895 10.7719 28.0566 9.00253C27.3237 7.2332 26.2495 5.62555 24.8953 4.27136C23.5411 2.91717 21.9335 1.84297 20.1641 1.11009C18.3948 0.377209 16.4984 0 14.5833 0Z" fill="black"/>
</svg>
